<svg id="svg" xmlns="http://www.w3.org/2000/svg" xmlns:xlink="http://www.w3.org/1999/xlink" width="400" height="185.625" viewBox="0, 0, 400,185.625" version="1.1"><g id="svgg"><path id="path0" d="M0.000 92.851 L 0.000 185.701 200.000 185.701 L 400.000 185.701 400.000 92.851 L 400.000 0.000 200.000 0.000 L 0.000 0.000 0.000 92.851 M76.835 48.329 C 76.872 62.045,76.835 65.553,76.649 65.556 C 76.521 65.558,68.728 65.558,59.331 65.556 L 42.247 65.551 42.200 48.281 L 42.152 31.010 59.470 31.058 L 76.787 31.105 76.835 48.329 M96.605 33.380 L 96.657 35.747 99.118 35.799 L 101.578 35.851 101.578 33.432 L 101.578 31.012 106.494 31.012 L 111.410 31.012 111.461 33.380 L 111.513 35.747 113.928 35.840 L 116.342 35.933 116.394 38.399 L 116.445 40.865 113.979 40.813 L 111.513 40.761 111.421 38.347 L 111.328 35.933 106.453 35.884 L 101.578 35.834 101.578 40.851 L 101.578 45.868 106.500 45.868 L 111.421 45.868 111.421 48.097 C 111.421 49.322,111.442 50.388,111.467 50.464 C 111.493 50.541,109.299 50.645,106.592 50.696 L 101.671 50.789 101.620 53.244 L 101.568 55.699 104.034 55.751 L 106.500 55.803 106.549 60.667 L 106.599 65.530 104.506 65.588 C 101.268 65.677,101.578 65.939,101.578 63.120 L 101.578 60.713 99.118 60.765 L 96.657 60.817 96.565 63.417 L 96.472 66.017 94.388 66.072 C 91.273 66.156,91.529 66.619,91.551 60.945 C 91.562 58.321,91.566 56.073,91.561 55.948 C 91.553 55.785,90.887 55.707,89.183 55.669 L 86.815 55.617 86.722 53.203 L 86.630 50.789 84.167 50.737 L 81.704 50.686 81.753 43.309 L 81.801 35.933 86.676 35.884 L 91.551 35.834 91.551 33.423 L 91.551 31.012 94.052 31.012 L 96.553 31.012 96.605 33.380 M166.017 48.195 C 166.017 65.031,166.009 65.381,165.657 65.512 C 165.458 65.585,157.645 65.624,148.293 65.597 L 131.291 65.549 131.291 48.280 L 131.291 31.012 148.654 31.012 L 166.017 31.012 166.017 48.195 M91.817 36.083 C 91.766 36.217,91.748 37.324,91.777 38.544 L 91.829 40.761 94.197 40.813 L 96.565 40.865 96.565 38.353 L 96.565 35.840 94.237 35.840 C 92.492 35.840,91.887 35.901,91.817 36.083 M47.354 48.282 L 47.354 60.356 59.471 60.308 L 71.588 60.260 71.588 48.282 L 71.588 36.305 59.471 36.257 L 47.354 36.209 47.354 48.282 M136.615 36.334 C 136.547 36.403,136.490 41.836,136.490 48.407 L 136.490 60.356 148.607 60.308 L 160.724 60.260 160.724 48.282 L 160.724 36.305 148.732 36.257 C 142.137 36.231,136.684 36.265,136.615 36.334 M66.852 48.284 L 66.852 55.715 59.471 55.666 L 52.089 55.617 52.040 48.468 C 52.014 44.537,52.032 41.215,52.081 41.087 C 52.150 40.906,53.801 40.854,59.511 40.854 L 66.852 40.854 66.852 48.284 M126.277 45.775 L 126.277 50.696 121.350 50.696 L 116.423 50.696 116.475 48.329 L 116.527 45.961 118.942 45.868 L 121.356 45.775 121.407 43.315 L 121.459 40.854 123.868 40.854 L 126.277 40.854 126.277 45.775 M155.989 48.284 L 155.989 55.715 148.607 55.666 L 141.226 55.617 141.177 48.468 C 141.150 44.537,141.168 41.215,141.218 41.087 C 141.287 40.906,142.938 40.854,148.648 40.854 L 155.989 40.854 155.989 48.284 M86.846 45.992 C 86.778 46.060,86.722 47.146,86.722 48.406 L 86.722 50.696 89.126 50.696 L 91.529 50.696 91.586 48.359 C 91.618 47.073,91.609 45.987,91.566 45.945 C 91.436 45.815,86.978 45.860,86.846 45.992 M96.688 45.992 C 96.620 46.060,96.565 47.144,96.565 48.401 L 96.565 50.685 94.197 50.737 L 91.829 50.789 91.777 53.250 L 91.726 55.710 94.145 55.710 L 96.565 55.710 96.565 53.203 L 96.565 50.696 99.071 50.696 L 101.578 50.696 101.578 48.282 L 101.578 45.868 99.195 45.868 C 97.885 45.868,96.756 45.924,96.688 45.992 M116.435 60.792 L 116.435 65.873 115.573 65.991 C 114.479 66.141,112.100 66.145,111.714 65.997 C 111.408 65.879,111.245 56.133,111.544 55.834 C 111.613 55.766,112.741 55.710,114.051 55.710 L 116.435 55.710 116.435 60.792 M126.277 60.795 L 126.277 65.881 125.832 65.966 C 125.587 66.012,124.522 66.043,123.464 66.034 L 121.541 66.017 121.492 60.864 L 121.443 55.710 123.860 55.710 L 126.277 55.710 126.277 60.795 M86.722 63.323 C 86.722 66.307,86.941 66.060,84.283 66.095 C 81.509 66.131,81.708 66.347,81.708 63.311 L 81.708 60.738 83.426 60.685 C 84.371 60.655,85.499 60.661,85.933 60.697 L 86.722 60.762 86.722 63.323 M110.347 78.877 L 110.399 81.244 112.721 81.337 L 115.042 81.430 115.042 91.171 L 115.042 100.913 112.906 100.937 C 111.732 100.951,110.664 100.976,110.533 100.992 C 110.351 101.014,110.307 101.537,110.347 103.203 L 110.399 105.385 112.721 105.478 L 115.042 105.571 115.042 108.078 L 115.042 110.585 110.214 110.585 L 105.385 110.585 105.292 108.171 L 105.200 105.757 102.971 105.757 L 100.743 105.757 100.650 108.171 L 100.557 110.585 93.315 110.585 L 86.072 110.585 85.980 108.171 L 85.887 105.757 83.519 105.705 L 81.151 105.653 81.151 93.500 L 81.151 81.348 83.519 81.296 L 85.887 81.244 85.936 79.109 C 85.963 77.934,86.023 76.869,86.069 76.741 C 86.136 76.558,88.737 76.509,98.224 76.509 L 110.295 76.509 110.347 78.877 M156.175 78.923 L 156.267 81.244 158.589 81.337 L 160.910 81.430 160.910 86.258 L 160.910 91.086 158.589 91.179 L 156.267 91.272 156.175 93.593 L 156.082 95.915 153.714 95.967 L 151.346 96.019 151.346 98.329 L 151.346 100.639 153.714 100.691 L 156.082 100.743 156.175 103.133 L 156.267 105.524 158.419 105.492 C 161.136 105.451,161.030 105.334,160.962 108.290 L 160.910 110.585 156.187 110.635 C 153.541 110.662,151.390 110.610,151.296 110.516 C 151.204 110.424,151.114 109.315,151.098 108.052 L 151.068 105.757 148.706 105.705 L 146.343 105.653 146.291 103.310 L 146.240 100.967 143.970 100.986 C 141.261 101.008,141.420 101.159,141.382 98.514 C 141.366 97.391,141.345 96.365,141.335 96.234 C 141.322 96.051,140.789 96.008,139.044 96.048 L 136.769 96.100 136.729 103.211 C 136.707 107.121,136.639 110.401,136.579 110.499 C 136.369 110.839,127.078 110.728,126.947 110.384 C 126.791 109.980,126.803 76.787,126.959 76.631 C 127.027 76.563,133.608 76.528,141.583 76.554 L 156.082 76.602 156.175 78.923 M235.922 77.092 C 243.561 78.532,247.559 83.952,247.612 92.943 L 247.632 96.286 236.351 96.334 L 225.070 96.382 225.070 96.918 C 225.070 98.619,226.522 101.406,228.188 102.902 C 231.808 106.153,238.282 105.861,242.249 102.268 L 243.365 101.256 245.288 103.077 L 247.210 104.898 246.834 105.426 C 242.393 111.662,230.824 112.966,223.892 108.011 C 213.635 100.681,216.133 81.758,227.880 77.800 C 230.526 76.909,233.541 76.644,235.922 77.092 M272.892 77.143 C 277.260 77.912,280.438 79.899,281.975 82.824 C 283.249 85.249,283.223 84.991,283.372 96.472 C 283.446 102.191,283.569 107.080,283.646 107.335 C 283.723 107.591,283.951 108.320,284.154 108.956 C 284.661 110.550,284.791 110.492,280.672 110.492 L 277.057 110.492 276.859 109.981 C 276.751 109.701,276.568 109.032,276.454 108.496 C 276.221 107.401,276.084 107.331,275.405 107.961 C 269.976 112.998,259.369 111.666,256.385 105.572 C 253.880 100.455,256.018 94.422,261.142 92.149 C 264.051 90.858,265.648 90.590,271.216 90.456 L 275.859 90.344 275.915 88.858 C 276.005 86.483,275.381 84.938,273.879 83.816 C 270.390 81.213,263.530 82.792,263.507 86.204 C 263.501 87.089,263.426 87.105,259.689 87.052 L 256.175 87.001 256.226 85.896 C 256.326 83.747,257.928 81.226,260.234 79.589 C 261.969 78.357,263.774 77.654,266.667 77.085 C 267.985 76.825,271.260 76.856,272.892 77.143 M345.311 77.146 C 352.783 78.482,357.020 84.354,356.875 93.173 L 356.825 96.286 345.522 96.334 L 334.220 96.382 334.350 97.262 C 335.492 104.998,345.413 107.864,351.509 102.220 L 352.621 101.191 354.491 102.995 C 356.720 105.147,356.685 104.917,355.014 106.526 C 345.795 115.400,329.891 111.002,327.200 98.834 C 324.842 88.171,330.320 79.037,340.297 76.999 C 341.174 76.820,343.940 76.901,345.311 77.146 M212.450 78.857 C 212.334 79.455,212.158 80.320,212.059 80.780 C 211.961 81.240,211.674 82.702,211.421 84.030 C 211.168 85.357,210.880 86.862,210.781 87.372 C 210.681 87.883,210.257 90.097,209.836 92.293 C 208.885 97.265,208.228 100.649,207.980 101.857 C 207.875 102.368,207.497 104.331,207.139 106.221 C 206.241 110.960,206.694 110.457,203.307 110.477 C 201.744 110.486,200.373 110.430,200.261 110.353 C 200.035 110.198,199.708 108.860,197.501 99.071 C 197.133 97.437,196.712 95.599,196.566 94.986 C 196.015 92.674,195.357 89.427,195.357 89.022 C 195.357 88.151,195.005 88.429,194.804 89.459 C 194.498 91.028,193.516 95.740,193.227 97.029 C 193.089 97.642,192.835 98.770,192.661 99.536 C 192.111 101.963,192.055 102.211,191.866 103.064 C 191.764 103.524,191.465 104.911,191.201 106.147 C 190.937 107.383,190.606 108.845,190.465 109.396 L 190.209 110.399 187.239 110.450 C 183.687 110.511,184.042 110.798,183.390 107.335 C 183.112 105.854,182.687 103.640,182.447 102.414 C 182.206 101.188,181.835 99.266,181.621 98.143 C 181.407 97.019,180.907 94.429,180.511 92.386 C 180.114 90.344,179.484 87.084,179.112 85.144 C 178.739 83.203,178.273 80.792,178.075 79.785 C 177.878 78.778,177.716 77.880,177.716 77.789 C 177.716 77.698,179.177 77.623,180.962 77.623 C 184.677 77.623,184.202 77.341,184.568 79.759 C 184.676 80.474,184.887 81.852,185.038 82.823 C 185.188 83.793,185.441 85.464,185.600 86.537 C 186.083 89.783,186.258 90.938,186.451 92.153 C 186.968 95.399,187.558 99.656,187.558 100.137 C 187.558 101.028,188.008 100.631,188.150 99.613 C 188.361 98.116,188.920 95.343,190.247 89.229 C 190.513 88.004,190.807 86.625,190.901 86.165 C 191.061 85.383,191.774 82.037,192.226 79.944 C 192.337 79.434,192.482 78.723,192.549 78.366 L 192.671 77.716 195.112 77.664 L 197.553 77.612 197.772 78.593 C 198.358 81.210,198.553 82.121,198.880 83.751 C 199.394 86.317,200.906 93.391,201.102 94.150 C 201.194 94.508,201.494 96.012,201.767 97.493 C 202.041 98.974,202.296 100.290,202.334 100.418 C 202.464 100.858,202.786 100.649,202.786 100.123 C 202.786 99.833,202.913 98.768,203.068 97.755 C 203.224 96.743,203.556 94.494,203.808 92.758 C 204.059 91.021,204.476 88.180,204.734 86.444 C 204.991 84.708,205.384 82.014,205.607 80.459 L 206.011 77.632 209.180 77.581 C 212.877 77.522,212.722 77.461,212.450 78.857 M297.307 77.696 C 297.307 77.743,302.116 91.898,303.244 95.172 C 304.900 99.978,305.441 101.649,305.575 102.366 C 305.725 103.171,305.953 103.133,306.131 102.273 C 306.243 101.726,310.720 88.269,313.280 80.780 L 314.328 77.716 317.563 77.623 C 319.343 77.572,321.059 77.556,321.377 77.587 L 321.956 77.643 320.759 80.651 C 320.100 82.305,319.370 84.160,319.137 84.773 C 318.903 85.385,318.023 87.642,317.180 89.786 C 316.337 91.931,315.504 94.062,315.328 94.522 C 314.668 96.253,310.249 107.489,309.669 108.914 L 309.064 110.399 305.832 110.399 L 302.600 110.399 301.372 107.335 C 300.697 105.650,299.540 102.725,298.801 100.836 C 298.063 98.946,297.164 96.648,296.805 95.729 C 296.445 94.810,296.047 93.807,295.918 93.500 C 295.609 92.761,294.947 91.086,293.715 87.929 C 292.937 85.936,290.468 79.669,289.748 77.860 C 289.679 77.686,290.426 77.620,292.879 77.581 C 295.662 77.537,297.307 77.580,297.307 77.696 M70.340 80.362 L 70.391 82.823 65.645 82.823 L 60.898 82.823 60.950 85.005 L 61.003 87.187 63.278 87.239 L 65.552 87.291 65.552 89.694 L 65.552 92.096 63.278 92.148 L 61.003 92.201 60.910 101.578 L 60.817 110.956 56.175 110.956 L 51.532 110.956 51.439 101.578 L 51.346 92.201 48.973 92.149 L 46.600 92.097 46.652 89.734 L 46.704 87.372 49.025 87.279 L 51.346 87.187 51.398 84.917 L 51.451 82.648 53.720 82.596 L 55.989 82.544 56.038 80.409 C 56.065 79.234,56.125 78.168,56.172 78.039 C 56.239 77.854,57.758 77.815,63.273 77.853 L 70.288 77.902 70.340 80.362 M91.120 81.644 C 91.050 81.714,90.994 87.105,90.994 93.624 L 90.994 105.478 95.729 105.478 C 98.333 105.478,100.467 105.457,100.470 105.432 C 100.959 101.579,100.681 100.745,98.957 100.905 C 98.252 100.971,97.214 100.970,96.651 100.904 L 95.626 100.783 95.677 98.349 L 95.729 95.915 100.513 95.865 L 105.297 95.815 105.248 88.716 L 105.200 81.616 98.223 81.567 C 94.385 81.540,91.189 81.575,91.120 81.644 M136.760 81.756 C 136.710 81.887,136.691 83.998,136.719 86.447 L 136.769 90.901 143.918 90.901 L 151.068 90.901 151.068 86.258 L 151.068 81.616 143.960 81.567 C 138.316 81.528,136.833 81.567,136.760 81.756 M230.967 83.131 C 228.290 83.950,226.296 86.290,225.352 89.719 C 224.979 91.071,224.565 91.003,232.881 90.949 L 240.390 90.901 240.447 90.104 C 240.779 85.509,235.612 81.709,230.967 83.131 M341.040 82.920 C 340.938 82.958,340.507 83.078,340.082 83.187 C 337.566 83.833,334.637 87.564,334.560 90.222 L 334.540 90.901 342.108 90.949 L 349.675 90.998 349.675 89.914 C 349.675 85.646,344.666 81.589,341.040 82.920 M268.338 95.206 C 264.002 95.925,261.713 98.984,263.003 102.336 C 264.459 106.118,271.164 106.211,274.874 102.500 L 275.952 101.422 275.952 98.251 L 275.952 95.079 272.377 95.104 C 270.411 95.118,268.593 95.164,268.338 95.206 M76.835 137.558 L 76.882 154.689 76.463 154.688 C 76.233 154.688,69.107 154.717,60.627 154.753 C 52.148 154.789,44.522 154.778,43.682 154.730 L 42.154 154.641 42.154 137.487 L 42.154 120.332 59.471 120.380 L 76.787 120.427 76.835 137.558 M96.605 122.609 L 96.657 124.884 99.118 124.936 L 101.578 124.988 101.578 122.661 L 101.578 120.334 104.085 120.334 L 106.592 120.334 106.592 122.636 C 106.592 125.366,106.818 125.162,103.792 125.162 L 101.578 125.162 101.578 130.084 L 101.578 135.005 109.012 135.005 L 116.445 135.005 116.394 132.544 L 116.342 130.084 113.876 130.032 L 111.410 129.980 111.462 127.525 L 111.513 125.070 116.435 124.977 L 121.356 124.884 121.408 122.609 L 121.460 120.334 123.865 120.334 L 126.270 120.334 126.320 125.116 L 126.370 129.898 133.748 129.946 L 141.126 129.995 141.176 125.211 L 141.226 120.427 143.686 120.375 L 146.147 120.323 146.147 127.664 L 146.147 135.005 141.226 135.005 L 136.305 135.005 136.305 137.218 C 136.305 140.251,136.522 140.019,133.685 140.019 L 131.291 140.019 131.291 142.433 L 131.291 144.847 138.719 144.847 L 146.147 144.847 146.147 142.453 C 146.147 139.540,145.563 139.833,151.362 139.833 L 155.989 139.833 155.989 137.419 L 155.989 135.005 153.575 135.005 L 151.161 135.005 151.161 132.496 L 151.161 129.986 158.542 130.035 L 165.924 130.084 165.972 142.236 C 165.998 148.920,165.953 154.456,165.871 154.537 C 165.743 154.666,162.626 154.790,161.421 154.715 L 161.003 154.689 161.003 147.348 L 161.003 140.008 158.542 140.060 L 156.082 140.111 156.030 142.479 L 155.978 144.847 151.294 144.850 C 145.627 144.853,146.122 144.600,146.187 147.461 L 146.240 149.768 148.700 149.820 L 151.161 149.872 151.161 152.280 C 151.161 154.652,151.154 154.689,150.743 154.695 C 149.768 154.710,146.949 154.715,146.565 154.702 C 146.153 154.689,146.147 154.651,146.147 152.273 L 146.147 149.857 136.258 149.906 L 126.370 149.954 126.318 152.321 C 126.272 154.414,126.229 154.690,125.946 154.694 C 125.770 154.697,124.708 154.713,123.584 154.729 L 121.541 154.759 121.541 149.849 L 121.541 144.940 123.909 144.888 L 126.277 144.836 126.277 142.424 L 126.277 140.012 121.402 140.062 L 116.527 140.111 116.475 142.479 L 116.423 144.847 114.216 144.847 C 111.100 144.847,111.421 144.271,111.421 149.863 L 111.421 154.655 110.353 154.723 C 109.385 154.786,102.589 154.781,98.282 154.715 L 96.565 154.689 96.565 152.275 L 96.565 149.861 94.150 149.861 L 91.736 149.861 91.736 152.275 C 91.736 154.954,91.840 154.758,90.436 154.734 C 90.181 154.730,88.113 154.718,85.840 154.708 L 81.708 154.689 81.708 152.280 L 81.708 149.872 84.169 149.820 L 86.630 149.768 86.722 137.419 L 86.815 125.070 89.183 125.018 L 91.551 124.966 91.551 122.944 C 91.551 120.129,91.345 120.334,94.165 120.334 L 96.553 120.334 96.605 122.609 M136.264 122.641 C 136.327 125.294,136.460 125.156,133.859 125.160 C 131.098 125.164,131.291 125.353,131.291 122.630 L 131.291 120.323 133.751 120.375 L 136.212 120.427 136.264 122.641 M165.976 122.641 C 166.040 125.294,166.172 125.156,163.571 125.160 C 160.810 125.164,161.003 125.353,161.003 122.630 L 161.003 120.323 163.463 120.375 L 165.924 120.427 165.976 122.641 M47.479 125.471 C 47.410 125.539,47.354 130.972,47.354 137.543 L 47.354 149.489 48.514 149.491 C 63.671 149.518,71.349 149.487,71.492 149.398 C 71.603 149.330,71.654 144.810,71.629 137.365 L 71.588 125.441 59.596 125.393 C 53.000 125.367,47.548 125.402,47.479 125.471 M66.852 137.421 L 66.852 144.851 59.471 144.803 L 52.089 144.754 52.040 137.605 C 52.014 133.673,52.032 130.351,52.081 130.223 C 52.150 130.042,53.801 129.991,59.511 129.991 L 66.852 129.991 66.852 137.421 M91.780 134.938 L 91.829 139.886 94.150 139.906 L 96.472 139.926 96.572 144.847 C 96.628 147.553,96.690 149.791,96.712 149.820 C 96.733 149.848,97.816 149.848,99.118 149.820 L 101.486 149.768 101.578 147.354 L 101.671 144.940 104.085 144.847 L 106.500 144.754 106.500 142.433 L 106.500 140.111 104.085 140.019 L 101.671 139.926 101.619 137.465 L 101.568 135.005 99.066 135.005 L 96.565 135.005 96.565 132.498 L 96.565 129.991 94.147 129.991 L 91.730 129.991 91.780 134.938 " stroke="none" fill="#5f4d93" fill-rule="evenodd"></path><path id="path1" d="M42.200 48.281 L 42.247 65.551 59.331 65.556 C 68.728 65.558,76.521 65.558,76.649 65.556 C 76.835 65.553,76.872 62.045,76.835 48.329 L 76.787 31.105 59.470 31.058 L 42.152 31.010 42.200 48.281 M91.551 33.423 L 91.551 35.834 86.676 35.884 L 81.801 35.933 81.753 43.309 L 81.704 50.686 84.167 50.737 L 86.630 50.789 86.722 53.203 L 86.815 55.617 89.183 55.669 C 90.887 55.707,91.553 55.785,91.561 55.948 C 91.566 56.073,91.562 58.321,91.551 60.945 C 91.529 66.619,91.273 66.156,94.388 66.072 L 96.472 66.017 96.565 63.417 L 96.657 60.817 99.118 60.765 L 101.578 60.713 101.578 63.120 C 101.578 65.939,101.268 65.677,104.506 65.588 L 106.599 65.530 106.549 60.667 L 106.500 55.803 104.034 55.751 L 101.568 55.699 101.620 53.244 L 101.671 50.789 106.592 50.696 C 109.299 50.645,111.493 50.541,111.467 50.464 C 111.442 50.388,111.421 49.322,111.421 48.097 L 111.421 45.868 106.500 45.868 L 101.578 45.868 101.578 40.851 L 101.578 35.834 106.453 35.884 L 111.328 35.933 111.421 38.347 L 111.513 40.761 113.979 40.813 L 116.445 40.865 116.394 38.399 L 116.342 35.933 113.928 35.840 L 111.513 35.747 111.461 33.380 L 111.410 31.012 106.494 31.012 L 101.578 31.012 101.578 33.432 L 101.578 35.851 99.118 35.799 L 96.657 35.747 96.605 33.380 L 96.553 31.012 94.052 31.012 L 91.551 31.012 91.551 33.423 M131.291 48.280 L 131.291 65.549 148.293 65.597 C 157.645 65.624,165.458 65.585,165.657 65.512 C 166.009 65.381,166.017 65.031,166.017 48.195 L 166.017 31.012 148.654 31.012 L 131.291 31.012 131.291 48.280 M96.565 38.353 L 96.565 40.865 94.197 40.813 L 91.829 40.761 91.777 38.544 C 91.707 35.606,91.493 35.840,94.237 35.840 L 96.565 35.840 96.565 38.353 M71.588 48.282 L 71.588 60.260 59.471 60.308 L 47.354 60.356 47.354 48.282 L 47.354 36.209 59.471 36.257 L 71.588 36.305 71.588 48.282 M160.724 48.282 L 160.724 60.260 148.607 60.308 L 136.490 60.356 136.490 48.407 C 136.490 41.836,136.547 36.403,136.615 36.334 C 136.684 36.265,142.137 36.231,148.732 36.257 L 160.724 36.305 160.724 48.282 M52.081 41.087 C 52.032 41.215,52.014 44.537,52.040 48.468 L 52.089 55.617 59.471 55.666 L 66.852 55.715 66.852 48.284 L 66.852 40.854 59.511 40.854 C 53.801 40.854,52.150 40.906,52.081 41.087 M121.407 43.315 L 121.356 45.775 118.942 45.868 L 116.527 45.961 116.475 48.329 L 116.423 50.696 121.350 50.696 L 126.277 50.696 126.277 45.775 L 126.277 40.854 123.868 40.854 L 121.459 40.854 121.407 43.315 M141.218 41.087 C 141.168 41.215,141.150 44.537,141.177 48.468 L 141.226 55.617 148.607 55.666 L 155.989 55.715 155.989 48.284 L 155.989 40.854 148.648 40.854 C 142.938 40.854,141.287 40.906,141.218 41.087 M91.566 45.945 C 91.609 45.987,91.618 47.073,91.586 48.359 L 91.529 50.696 89.126 50.696 L 86.722 50.696 86.722 48.406 C 86.722 47.146,86.778 46.060,86.846 45.992 C 86.978 45.860,91.436 45.815,91.566 45.945 M101.578 48.282 L 101.578 50.696 99.071 50.696 L 96.565 50.696 96.565 53.203 L 96.565 55.710 94.145 55.710 L 91.726 55.710 91.777 53.250 L 91.829 50.789 94.197 50.737 L 96.565 50.685 96.565 48.401 C 96.565 45.632,96.319 45.868,99.195 45.868 L 101.578 45.868 101.578 48.282 M111.544 55.834 C 111.245 56.133,111.408 65.879,111.714 65.997 C 112.100 66.145,114.479 66.141,115.573 65.991 L 116.435 65.873 116.435 60.792 L 116.435 55.710 114.051 55.710 C 112.741 55.710,111.613 55.766,111.544 55.834 M121.492 60.864 L 121.541 66.017 123.464 66.034 C 124.522 66.043,125.587 66.012,125.832 65.966 L 126.277 65.881 126.277 60.795 L 126.277 55.710 123.860 55.710 L 121.443 55.710 121.492 60.864 M83.426 60.685 L 81.708 60.738 81.708 63.311 C 81.708 66.347,81.509 66.131,84.283 66.095 C 86.941 66.060,86.722 66.307,86.722 63.323 L 86.722 60.762 85.933 60.697 C 85.499 60.661,84.371 60.655,83.426 60.685 M86.069 76.741 C 86.023 76.869,85.963 77.934,85.936 79.109 L 85.887 81.244 83.519 81.296 L 81.151 81.348 81.151 93.500 L 81.151 105.653 83.519 105.705 L 85.887 105.757 85.980 108.171 L 86.072 110.585 93.315 110.585 L 100.557 110.585 100.650 108.171 L 100.743 105.757 102.971 105.757 L 105.200 105.757 105.292 108.171 L 105.385 110.585 110.214 110.585 L 115.042 110.585 115.042 108.078 L 115.042 105.571 112.721 105.478 L 110.399 105.385 110.347 103.203 C 110.307 101.537,110.351 101.014,110.533 100.992 C 110.664 100.976,111.732 100.951,112.906 100.937 L 115.042 100.913 115.042 91.171 L 115.042 81.430 112.721 81.337 L 110.399 81.244 110.347 78.877 L 110.295 76.509 98.224 76.509 C 88.737 76.509,86.136 76.558,86.069 76.741 M126.959 76.631 C 126.803 76.787,126.791 109.980,126.947 110.384 C 127.078 110.728,136.369 110.839,136.579 110.499 C 136.639 110.401,136.707 107.121,136.729 103.211 L 136.769 96.100 139.044 96.048 C 140.789 96.008,141.322 96.051,141.335 96.234 C 141.345 96.365,141.366 97.391,141.382 98.514 C 141.420 101.159,141.261 101.008,143.970 100.986 L 146.240 100.967 146.291 103.310 L 146.343 105.653 148.706 105.705 L 151.068 105.757 151.098 108.052 C 151.114 109.315,151.204 110.424,151.296 110.516 C 151.390 110.610,153.541 110.662,156.187 110.635 L 160.910 110.585 160.962 108.290 C 161.030 105.334,161.136 105.451,158.419 105.492 L 156.267 105.524 156.175 103.133 L 156.082 100.743 153.714 100.691 L 151.346 100.639 151.346 98.329 L 151.346 96.019 153.714 95.967 L 156.082 95.915 156.175 93.593 L 156.267 91.272 158.589 91.179 L 160.910 91.086 160.910 86.258 L 160.910 81.430 158.589 81.337 L 156.267 81.244 156.175 78.923 L 156.082 76.602 141.583 76.554 C 133.608 76.528,127.027 76.563,126.959 76.631 M230.157 77.166 C 216.641 80.133,212.615 99.952,223.892 108.011 C 230.824 112.966,242.393 111.662,246.834 105.426 L 247.210 104.898 245.288 103.077 L 243.365 101.256 242.249 102.268 C 238.282 105.861,231.808 106.153,228.188 102.902 C 226.522 101.406,225.070 98.619,225.070 96.918 L 225.070 96.382 236.351 96.334 L 247.632 96.286 247.612 92.943 C 247.547 81.838,239.990 75.008,230.157 77.166 M266.667 77.085 C 263.774 77.654,261.969 78.357,260.234 79.589 C 257.928 81.226,256.326 83.747,256.226 85.896 L 256.175 87.001 259.689 87.052 C 263.426 87.105,263.501 87.089,263.507 86.204 C 263.530 82.792,270.390 81.213,273.879 83.816 C 275.381 84.938,276.005 86.483,275.915 88.858 L 275.859 90.344 271.216 90.456 C 265.648 90.590,264.051 90.858,261.142 92.149 C 256.018 94.422,253.880 100.455,256.385 105.572 C 259.369 111.666,269.976 112.998,275.405 107.961 C 276.084 107.331,276.221 107.401,276.454 108.496 C 276.568 109.032,276.751 109.701,276.859 109.981 L 277.057 110.492 280.672 110.492 C 284.791 110.492,284.661 110.550,284.154 108.956 C 283.951 108.320,283.723 107.591,283.646 107.335 C 283.569 107.080,283.446 102.191,283.372 96.472 C 283.223 84.991,283.249 85.249,281.975 82.824 C 279.729 78.550,272.668 75.903,266.667 77.085 M340.297 76.999 C 330.320 79.037,324.842 88.171,327.200 98.834 C 329.891 111.002,345.795 115.400,355.014 106.526 C 356.685 104.917,356.720 105.147,354.491 102.995 L 352.621 101.191 351.509 102.220 C 345.413 107.864,335.492 104.998,334.350 97.262 L 334.220 96.382 345.522 96.334 L 356.825 96.286 356.875 93.173 C 357.003 85.353,353.733 79.898,347.597 77.699 C 345.804 77.056,341.866 76.679,340.297 76.999 M209.180 77.581 L 206.011 77.632 205.607 80.459 C 205.384 82.014,204.991 84.708,204.734 86.444 C 204.476 88.180,204.059 91.021,203.808 92.758 C 203.556 94.494,203.224 96.743,203.068 97.755 C 202.913 98.768,202.786 99.833,202.786 100.123 C 202.786 100.649,202.464 100.858,202.334 100.418 C 202.296 100.290,202.041 98.974,201.767 97.493 C 201.494 96.012,201.194 94.508,201.102 94.150 C 200.906 93.391,199.394 86.317,198.880 83.751 C 198.553 82.121,198.358 81.210,197.772 78.593 L 197.553 77.612 195.112 77.664 L 192.671 77.716 192.549 78.366 C 192.482 78.723,192.337 79.434,192.226 79.944 C 191.774 82.037,191.061 85.383,190.901 86.165 C 190.807 86.625,190.513 88.004,190.247 89.229 C 188.920 95.343,188.361 98.116,188.150 99.613 C 188.008 100.631,187.558 101.028,187.558 100.137 C 187.558 99.656,186.968 95.399,186.451 92.153 C 186.258 90.938,186.083 89.783,185.600 86.537 C 185.441 85.464,185.188 83.793,185.038 82.823 C 184.887 81.852,184.676 80.474,184.568 79.759 C 184.202 77.341,184.677 77.623,180.962 77.623 C 179.177 77.623,177.716 77.698,177.716 77.789 C 177.716 77.880,177.878 78.778,178.075 79.785 C 178.273 80.792,178.739 83.203,179.112 85.144 C 179.484 87.084,180.114 90.344,180.511 92.386 C 180.907 94.429,181.407 97.019,181.621 98.143 C 181.835 99.266,182.206 101.188,182.447 102.414 C 182.687 103.640,183.112 105.854,183.390 107.335 C 184.042 110.798,183.687 110.511,187.239 110.450 L 190.209 110.399 190.465 109.396 C 190.606 108.845,190.937 107.383,191.201 106.147 C 191.465 104.911,191.764 103.524,191.866 103.064 C 192.055 102.211,192.111 101.963,192.661 99.536 C 192.835 98.770,193.089 97.642,193.227 97.029 C 193.516 95.740,194.498 91.028,194.804 89.459 C 195.005 88.429,195.357 88.151,195.357 89.022 C 195.357 89.427,196.015 92.674,196.566 94.986 C 196.712 95.599,197.133 97.437,197.501 99.071 C 199.708 108.860,200.035 110.198,200.261 110.353 C 200.373 110.430,201.744 110.486,203.307 110.477 C 206.694 110.457,206.241 110.960,207.139 106.221 C 207.497 104.331,207.875 102.368,207.980 101.857 C 208.228 100.649,208.885 97.265,209.836 92.293 C 210.257 90.097,210.681 87.883,210.781 87.372 C 210.880 86.862,211.168 85.357,211.421 84.030 C 211.674 82.702,211.961 81.240,212.059 80.780 C 212.831 77.177,213.137 77.518,209.180 77.581 M292.879 77.581 C 290.426 77.620,289.679 77.686,289.748 77.860 C 290.468 79.669,292.937 85.936,293.715 87.929 C 294.947 91.086,295.609 92.761,295.918 93.500 C 296.047 93.807,296.445 94.810,296.805 95.729 C 297.164 96.648,298.063 98.946,298.801 100.836 C 299.540 102.725,300.697 105.650,301.372 107.335 L 302.600 110.399 305.832 110.399 L 309.064 110.399 309.669 108.914 C 310.249 107.489,314.668 96.253,315.328 94.522 C 315.504 94.062,316.337 91.931,317.180 89.786 C 318.023 87.642,318.903 85.385,319.137 84.773 C 319.370 84.160,320.100 82.305,320.759 80.651 L 321.956 77.643 321.377 77.587 C 321.059 77.556,319.343 77.572,317.563 77.623 L 314.328 77.716 313.280 80.780 C 310.720 88.269,306.243 101.726,306.131 102.273 C 305.953 103.133,305.725 103.171,305.575 102.366 C 305.441 101.649,304.900 99.978,303.244 95.172 C 302.116 91.898,297.307 77.743,297.307 77.696 C 297.307 77.580,295.662 77.537,292.879 77.581 M56.172 78.039 C 56.125 78.168,56.065 79.234,56.038 80.409 L 55.989 82.544 53.720 82.596 L 51.451 82.648 51.398 84.917 L 51.346 87.187 49.025 87.279 L 46.704 87.372 46.652 89.734 L 46.600 92.097 48.973 92.149 L 51.346 92.201 51.439 101.578 L 51.532 110.956 56.175 110.956 L 60.817 110.956 60.910 101.578 L 61.003 92.201 63.278 92.148 L 65.552 92.096 65.552 89.694 L 65.552 87.291 63.278 87.239 L 61.003 87.187 60.950 85.005 L 60.898 82.823 65.645 82.823 L 70.391 82.823 70.340 80.362 L 70.288 77.902 63.273 77.853 C 57.758 77.815,56.239 77.854,56.172 78.039 M105.248 88.716 L 105.297 95.815 100.513 95.865 L 95.729 95.915 95.677 98.349 L 95.626 100.783 96.651 100.904 C 97.214 100.970,98.252 100.971,98.957 100.905 C 100.681 100.745,100.959 101.579,100.470 105.432 C 100.467 105.457,98.333 105.478,95.729 105.478 L 90.994 105.478 90.994 93.624 C 90.994 87.105,91.050 81.714,91.120 81.644 C 91.189 81.575,94.385 81.540,98.223 81.567 L 105.200 81.616 105.248 88.716 M151.068 86.258 L 151.068 90.901 143.918 90.901 L 136.769 90.901 136.719 86.447 C 136.691 83.998,136.710 81.887,136.760 81.756 C 136.833 81.567,138.316 81.528,143.960 81.567 L 151.068 81.616 151.068 86.258 M235.005 83.076 C 238.260 83.948,240.667 87.056,240.447 90.104 L 240.390 90.901 232.881 90.949 C 224.565 91.003,224.979 91.071,225.352 89.719 C 226.757 84.617,230.680 81.918,235.005 83.076 M344.141 83.031 C 347.250 83.689,349.675 86.706,349.675 89.914 L 349.675 90.998 342.108 90.949 L 334.540 90.901 334.560 90.222 C 334.637 87.564,337.566 83.833,340.082 83.187 C 340.507 83.078,340.938 82.958,341.040 82.920 C 341.446 82.771,343.212 82.834,344.141 83.031 M275.952 98.251 L 275.952 101.422 274.874 102.500 C 271.164 106.211,264.459 106.118,263.003 102.336 C 261.901 99.470,263.437 96.671,266.667 95.661 C 268.346 95.136,268.378 95.133,272.377 95.104 L 275.952 95.079 275.952 98.251 M42.154 137.487 L 42.154 154.641 43.682 154.730 C 44.522 154.778,52.148 154.789,60.627 154.753 C 69.107 154.717,76.233 154.688,76.463 154.688 L 76.882 154.689 76.835 137.558 L 76.787 120.427 59.471 120.380 L 42.154 120.332 42.154 137.487 M91.663 120.628 C 91.601 120.790,91.551 121.832,91.551 122.944 L 91.551 124.966 89.183 125.018 L 86.815 125.070 86.722 137.419 L 86.630 149.768 84.169 149.820 L 81.708 149.872 81.708 152.280 L 81.708 154.689 85.840 154.708 C 88.113 154.718,90.181 154.730,90.436 154.734 C 91.840 154.758,91.736 154.954,91.736 152.275 L 91.736 149.861 94.150 149.861 L 96.565 149.861 96.565 152.275 L 96.565 154.689 98.282 154.715 C 102.589 154.781,109.385 154.786,110.353 154.723 L 111.421 154.655 111.421 149.863 C 111.421 144.271,111.100 144.847,114.216 144.847 L 116.423 144.847 116.475 142.479 L 116.527 140.111 121.402 140.062 L 126.277 140.012 126.277 142.424 L 126.277 144.836 123.909 144.888 L 121.541 144.940 121.541 149.849 L 121.541 154.759 123.584 154.729 C 124.708 154.713,125.770 154.697,125.946 154.694 C 126.229 154.690,126.272 154.414,126.318 152.321 L 126.370 149.954 136.258 149.906 L 146.147 149.857 146.147 152.273 C 146.147 154.651,146.153 154.689,146.565 154.702 C 146.949 154.715,149.768 154.710,150.743 154.695 C 151.154 154.689,151.161 154.652,151.161 152.280 L 151.161 149.872 148.700 149.820 L 146.240 149.768 146.187 147.461 C 146.122 144.600,145.627 144.853,151.294 144.850 L 155.978 144.847 156.030 142.479 L 156.082 140.111 158.542 140.060 L 161.003 140.008 161.003 147.348 L 161.003 154.689 161.421 154.715 C 162.626 154.790,165.743 154.666,165.871 154.537 C 165.953 154.456,165.998 148.920,165.972 142.236 L 165.924 130.084 158.542 130.035 L 151.161 129.986 151.161 132.496 L 151.161 135.005 153.575 135.005 L 155.989 135.005 155.989 137.419 L 155.989 139.833 151.362 139.833 C 145.563 139.833,146.147 139.540,146.147 142.453 L 146.147 144.847 138.719 144.847 L 131.291 144.847 131.291 142.433 L 131.291 140.019 133.685 140.019 C 136.522 140.019,136.305 140.251,136.305 137.218 L 136.305 135.005 141.226 135.005 L 146.147 135.005 146.147 127.664 L 146.147 120.323 143.686 120.375 L 141.226 120.427 141.176 125.211 L 141.126 129.995 133.748 129.946 L 126.370 129.898 126.320 125.116 L 126.270 120.334 123.865 120.334 L 121.460 120.334 121.408 122.609 L 121.356 124.884 116.435 124.977 L 111.513 125.070 111.462 127.525 L 111.410 129.980 113.876 130.032 L 116.342 130.084 116.394 132.544 L 116.445 135.005 109.012 135.005 L 101.578 135.005 101.578 130.084 L 101.578 125.162 103.792 125.162 C 106.818 125.162,106.592 125.366,106.592 122.636 L 106.592 120.334 104.085 120.334 L 101.578 120.334 101.578 122.661 L 101.578 124.988 99.118 124.936 L 96.657 124.884 96.605 122.609 L 96.553 120.334 94.165 120.334 C 92.158 120.334,91.758 120.381,91.663 120.628 M131.291 122.630 C 131.291 125.353,131.098 125.164,133.859 125.160 C 136.460 125.156,136.327 125.294,136.264 122.641 L 136.212 120.427 133.751 120.375 L 131.291 120.323 131.291 122.630 M161.003 122.630 C 161.003 125.353,160.810 125.164,163.571 125.160 C 166.172 125.156,166.040 125.294,165.976 122.641 L 165.924 120.427 163.463 120.375 L 161.003 120.323 161.003 122.630 M71.629 137.365 C 71.654 144.810,71.603 149.330,71.492 149.398 C 71.349 149.487,63.671 149.518,48.514 149.491 L 47.354 149.489 47.354 137.543 C 47.354 130.972,47.410 125.539,47.479 125.471 C 47.548 125.402,53.000 125.367,59.596 125.393 L 71.588 125.441 71.629 137.365 M52.081 130.223 C 52.032 130.351,52.014 133.673,52.040 137.605 L 52.089 144.754 59.471 144.803 L 66.852 144.851 66.852 137.421 L 66.852 129.991 59.511 129.991 C 53.801 129.991,52.150 130.042,52.081 130.223 M96.565 132.498 L 96.565 135.005 99.066 135.005 L 101.568 135.005 101.619 137.465 L 101.671 139.926 104.085 140.019 L 106.500 140.111 106.500 142.433 L 106.500 144.754 104.085 144.847 L 101.671 144.940 101.578 147.354 L 101.486 149.768 99.118 149.820 C 97.816 149.848,96.733 149.848,96.712 149.820 C 96.690 149.791,96.628 147.553,96.572 144.847 L 96.472 139.926 94.150 139.906 L 91.829 139.886 91.780 134.938 L 91.730 129.991 94.147 129.991 L 96.565 129.991 96.565 132.498 " stroke="none" fill="#ffffff" fill-rule="evenodd"></path></g></svg>