<svg id="svg" xmlns="http://www.w3.org/2000/svg" xmlns:xlink="http://www.w3.org/1999/xlink" width="400" height="185.31645569620252" viewBox="0, 0, 400,185.31645569620252"><g id="svgg"><path id="path0" d="M0.000 92.658 L 0.000 185.316 200.000 185.316 L 400.000 185.316 400.000 92.658 L 400.000 0.000 200.000 0.000 L 0.000 0.000 0.000 92.658 M76.962 48.101 L 76.962 65.823 59.747 65.823 L 42.532 65.823 42.532 48.101 L 42.532 30.380 59.747 30.380 L 76.962 30.380 76.962 48.101 M96.709 32.911 C 96.709 34.241,95.926 35.048,94.430 35.260 C 91.361 35.696,91.129 40.506,94.177 40.506 C 95.662 40.506,96.203 39.831,96.203 37.975 C 96.203 35.969,96.714 35.443,98.664 35.443 C 100.445 35.443,101.214 34.814,101.449 33.165 C 101.978 29.437,111.392 29.144,111.392 32.856 C 111.392 34.940,111.884 35.443,113.924 35.443 C 115.949 35.443,116.456 35.949,116.456 37.975 C 116.456 40.000,115.949 40.506,113.924 40.506 C 111.884 40.506,111.392 40.004,111.392 37.919 C 111.392 35.465,111.146 35.348,106.582 35.641 L 101.772 35.949 101.464 40.759 L 101.155 45.570 106.274 45.570 C 111.059 45.570,111.392 45.735,111.392 48.101 C 111.392 50.464,111.055 50.633,106.329 50.633 C 101.603 50.633,101.266 50.802,101.266 53.165 C 101.266 55.190,101.772 55.696,103.797 55.696 C 106.160 55.696,106.329 56.034,106.329 60.759 C 106.329 65.485,106.160 65.823,103.797 65.823 C 101.772 65.823,101.266 65.316,101.266 63.291 C 101.266 61.315,100.748 60.759,98.907 60.759 C 97.112 60.759,96.567 61.304,96.628 63.038 C 96.690 64.795,96.072 65.390,93.924 65.637 C 91.210 65.949,91.139 65.826,91.139 60.827 C 91.139 56.371,90.873 55.696,89.114 55.696 C 87.629 55.696,87.089 55.021,87.089 53.165 C 87.089 51.139,86.582 50.633,84.557 50.633 C 82.082 50.633,82.025 50.464,82.025 43.038 L 82.025 35.443 86.582 35.443 C 90.326 35.443,91.139 35.112,91.139 33.586 C 91.139 31.101,92.153 30.234,94.642 30.590 C 95.935 30.775,96.709 31.644,96.709 32.911 M166.076 48.101 L 166.076 65.823 148.861 65.823 L 131.646 65.823 131.646 48.101 L 131.646 30.380 148.861 30.380 L 166.076 30.380 166.076 48.101 M47.595 48.101 L 47.595 59.747 59.747 59.747 L 71.899 59.747 71.899 48.101 L 71.899 36.456 59.747 36.456 L 47.595 36.456 47.595 48.101 M136.709 48.101 L 136.709 59.747 148.861 59.747 L 161.013 59.747 161.013 48.101 L 161.013 36.456 148.861 36.456 L 136.709 36.456 136.709 48.101 M66.835 48.101 L 66.835 55.696 59.241 55.696 L 51.646 55.696 51.646 48.101 L 51.646 40.506 59.241 40.506 L 66.835 40.506 66.835 48.101 M126.582 45.570 L 126.582 50.633 121.519 50.633 C 116.793 50.633,116.456 50.464,116.456 48.101 C 116.456 46.076,116.962 45.570,118.987 45.570 C 121.013 45.570,121.519 45.063,121.519 43.038 C 121.519 41.013,122.025 40.506,124.051 40.506 C 126.414 40.506,126.582 40.844,126.582 45.570 M155.949 48.101 L 155.949 55.696 148.354 55.696 L 140.759 55.696 140.759 48.101 L 140.759 40.506 148.354 40.506 L 155.949 40.506 155.949 48.101 M87.089 48.101 C 87.089 49.958,87.629 50.633,89.114 50.633 C 90.599 50.633,91.139 49.958,91.139 48.101 C 91.139 46.245,90.599 45.570,89.114 45.570 C 87.629 45.570,87.089 46.245,87.089 48.101 M96.988 46.135 C 95.797 47.325,97.541 50.633,99.359 50.633 C 100.718 50.633,101.266 49.906,101.266 48.101 C 101.266 45.724,98.617 44.506,96.988 46.135 M92.152 53.165 C 92.152 55.021,92.692 55.696,94.177 55.696 C 95.662 55.696,96.203 55.021,96.203 53.165 C 96.203 51.308,95.662 50.633,94.177 50.633 C 92.692 50.633,92.152 51.308,92.152 53.165 M116.456 60.759 C 116.456 65.485,116.287 65.823,113.924 65.823 C 111.561 65.823,111.392 65.485,111.392 60.759 C 111.392 56.034,111.561 55.696,113.924 55.696 C 116.287 55.696,116.456 56.034,116.456 60.759 M126.582 60.759 C 126.582 65.485,126.414 65.823,124.051 65.823 C 121.688 65.823,121.519 65.485,121.519 60.759 C 121.519 56.034,121.688 55.696,124.051 55.696 C 126.414 55.696,126.582 56.034,126.582 60.759 M87.089 63.291 C 87.089 65.316,86.582 65.823,84.557 65.823 C 82.532 65.823,82.025 65.316,82.025 63.291 C 82.025 61.266,82.532 60.759,84.557 60.759 C 86.582 60.759,87.089 61.266,87.089 63.291 M110.380 78.481 C 110.380 80.516,110.884 81.013,112.948 81.013 L 115.516 81.013 115.227 90.886 C 114.952 100.252,114.820 100.776,112.658 101.083 C 109.321 101.557,109.546 105.316,112.911 105.316 C 114.937 105.316,115.443 105.823,115.443 107.848 C 115.443 110.211,115.105 110.380,110.380 110.380 C 105.617 110.380,105.316 110.225,105.316 107.778 C 105.316 104.315,100.932 104.606,100.436 108.101 C 99.906 111.836,86.076 111.592,86.076 107.848 C 86.076 105.823,85.570 105.316,83.544 105.316 L 81.013 105.316 81.013 93.165 L 81.013 81.013 83.544 81.013 C 85.570 81.013,86.076 80.506,86.076 78.481 L 86.076 75.949 98.228 75.949 L 110.380 75.949 110.380 78.481 M155.949 78.481 C 155.949 80.506,156.456 81.013,158.481 81.013 C 160.844 81.013,161.013 81.350,161.013 86.076 C 161.013 90.802,160.844 91.139,158.481 91.139 C 156.456 91.139,155.949 91.646,155.949 93.671 C 155.949 95.633,155.429 96.203,153.635 96.203 C 151.995 96.203,151.320 96.793,151.320 98.228 C 151.320 99.662,151.995 100.253,153.635 100.253 C 155.429 100.253,155.949 100.823,155.949 102.785 C 155.949 104.810,156.456 105.316,158.481 105.316 C 160.506 105.316,161.013 105.823,161.013 107.848 C 161.013 110.211,160.675 110.380,155.949 110.380 C 151.224 110.380,150.886 110.211,150.886 107.848 C 150.886 105.823,150.380 105.316,148.354 105.316 C 146.355 105.316,145.823 104.804,145.823 102.880 C 145.823 100.941,145.408 100.551,143.797 100.972 C 142.153 101.402,141.772 101.003,141.772 98.852 C 141.772 96.701,141.296 96.203,139.241 96.203 C 136.781 96.203,136.709 96.405,136.709 103.291 L 136.709 110.380 131.646 110.380 L 126.582 110.380 126.582 93.840 C 126.582 84.743,126.886 76.996,127.257 76.624 C 127.629 76.253,134.236 75.949,141.941 75.949 L 155.949 75.949 155.949 78.481 M185.288 84.304 C 187.988 101.296,187.655 101.028,190.321 88.354 C 192.543 77.790,192.889 76.962,195.074 76.962 C 196.680 76.962,197.604 77.687,197.978 79.241 C 198.279 80.494,199.372 85.392,200.406 90.127 C 202.509 99.751,202.804 99.509,204.723 86.582 L 206.076 77.468 209.463 77.144 C 212.689 76.835,212.824 76.955,212.287 79.676 C 211.977 81.246,210.497 88.821,208.998 96.508 L 206.273 110.485 203.145 110.179 C 200.049 109.877,199.990 109.761,197.547 99.283 C 196.188 93.459,194.964 89.129,194.826 89.663 C 194.688 90.196,193.588 95.102,192.381 100.563 L 190.188 110.494 187.001 110.184 L 183.815 109.873 181.103 96.203 C 177.456 77.822,177.459 76.962,181.174 76.962 C 184.050 76.962,184.149 77.139,185.288 84.304 M243.045 80.513 C 246.151 83.489,248.086 88.432,248.096 93.418 L 248.101 96.203 236.456 96.203 C 223.717 96.203,223.271 96.474,227.752 101.488 C 231.197 105.345,237.518 105.948,241.044 102.757 C 242.959 101.024,243.122 101.028,245.147 102.861 L 247.257 104.770 244.625 107.034 C 230.617 119.083,210.774 101.651,219.597 85.047 C 224.165 76.451,236.346 74.095,243.045 80.513 M277.502 78.498 C 282.269 80.963,283.327 84.292,283.708 98.005 L 284.051 110.383 280.253 110.381 C 277.528 110.380,276.456 109.944,276.456 108.837 C 276.456 107.500,276.109 107.522,273.844 109.006 C 265.294 114.609,253.444 107.754,255.776 98.555 C 257.107 93.309,260.723 91.031,268.739 90.387 C 274.909 89.892,275.443 89.663,275.443 87.514 C 275.443 82.379,268.743 80.532,264.718 84.557 C 261.621 87.654,256.203 88.097,256.203 85.253 C 256.203 78.884,269.867 74.550,277.502 78.498 M301.258 89.367 C 303.481 95.911,305.536 101.266,305.823 101.266 C 306.110 101.266,308.164 95.911,310.388 89.367 L 314.430 77.468 318.228 77.154 C 320.316 76.981,322.023 76.981,322.021 77.154 C 322.018 77.327,319.152 84.759,315.652 93.671 L 309.288 109.873 305.823 109.873 L 302.358 109.873 295.994 93.671 C 292.493 84.759,289.627 77.327,289.625 77.154 C 289.622 76.981,291.329 76.981,293.418 77.154 L 297.215 77.468 301.258 89.367 M352.493 80.781 C 355.309 83.933,357.452 89.600,357.463 93.924 C 357.468 96.155,357.226 96.203,345.823 96.203 C 339.418 96.203,334.177 96.453,334.177 96.759 C 334.177 102.761,342.312 106.513,348.590 103.407 C 356.435 99.526,358.820 105.020,351.037 109.044 C 336.460 116.582,321.279 100.178,328.862 85.083 C 333.246 76.359,346.402 73.964,352.493 80.781 M70.703 80.253 C 70.427 82.198,69.674 82.577,65.570 82.840 C 60.123 83.190,58.032 87.089,63.291 87.089 C 65.316 87.089,65.823 87.595,65.823 89.620 C 65.823 91.646,65.316 92.152,63.291 92.152 C 60.778 92.152,60.759 92.219,60.759 101.266 L 60.759 110.380 56.203 110.380 L 51.646 110.380 51.646 101.266 C 51.646 92.219,51.627 92.152,49.114 92.152 C 47.089 92.152,46.582 91.646,46.582 89.620 C 46.582 87.595,47.089 87.089,49.114 87.089 C 51.139 87.089,51.646 86.582,51.646 84.557 C 51.646 82.700,52.186 82.025,53.671 82.025 C 55.021 82.025,55.696 81.350,55.696 80.000 C 55.696 78.153,56.371 77.975,63.362 77.975 C 70.732 77.975,71.014 78.062,70.703 80.253 M91.139 93.118 L 91.139 105.316 95.696 105.316 C 99.793 105.316,100.253 105.078,100.253 102.958 C 100.253 101.163,99.708 100.618,97.975 100.679 C 92.634 100.868,95.133 95.732,100.551 95.386 L 105.406 95.075 105.108 88.297 L 104.810 81.519 97.975 81.220 L 91.139 80.920 91.139 93.118 M137.384 81.688 C 137.013 82.059,136.709 84.338,136.709 86.751 L 136.709 91.139 143.797 91.139 L 150.886 91.139 150.886 86.076 L 150.886 81.013 144.473 81.013 C 140.945 81.013,137.755 81.316,137.384 81.688 M227.848 85.063 C 223.747 89.164,225.080 90.648,232.911 90.697 C 239.502 90.739,240.000 90.589,240.000 88.566 C 240.000 83.444,231.824 81.087,227.848 85.063 M338.460 83.716 C 336.827 84.373,334.048 89.660,334.893 90.505 C 336.571 92.183,349.367 91.153,349.367 89.339 C 349.367 84.506,343.725 81.597,338.460 83.716 M264.304 97.215 C 259.470 102.049,264.912 106.782,271.931 103.849 C 275.004 102.565,275.443 101.932,275.443 98.786 C 275.443 94.357,268.185 93.334,264.304 97.215 M76.733 137.468 L 77.010 154.937 59.771 154.937 L 42.532 154.937 42.532 137.191 L 42.532 119.445 59.494 119.722 L 76.456 120.000 76.733 137.468 M96.628 122.278 C 96.568 123.993,97.115 124.557,98.837 124.557 C 100.439 124.557,101.222 123.874,101.449 122.278 C 101.945 118.783,106.329 118.492,106.329 121.955 C 106.329 124.055,105.841 124.557,103.797 124.557 C 101.435 124.557,101.266 124.895,101.266 129.620 L 101.266 134.684 108.861 134.684 C 116.287 134.684,116.456 134.627,116.456 132.152 C 116.456 130.127,115.949 129.620,113.924 129.620 C 111.899 129.620,111.392 129.114,111.392 127.089 C 111.392 124.726,111.730 124.557,116.456 124.557 C 121.218 124.557,121.519 124.402,121.519 121.955 C 121.519 116.553,126.024 119.197,126.385 124.810 L 126.693 129.620 133.671 129.620 L 140.649 129.620 140.957 124.810 C 141.221 120.705,141.600 119.953,143.544 119.676 C 145.735 119.365,145.823 119.648,145.823 127.018 L 145.823 134.684 141.266 134.684 C 137.080 134.684,136.709 134.890,136.709 137.215 C 136.709 139.241,136.203 139.747,134.177 139.747 C 132.152 139.747,131.646 140.253,131.646 142.278 C 131.646 144.738,131.848 144.810,138.734 144.810 C 145.620 144.810,145.823 144.738,145.823 142.278 C 145.823 139.916,146.160 139.747,150.886 139.747 C 155.612 139.747,155.949 139.578,155.949 137.215 C 155.949 135.190,155.443 134.684,153.418 134.684 C 151.392 134.684,150.886 134.177,150.886 132.152 C 150.886 129.677,151.055 129.620,158.481 129.620 L 166.076 129.620 166.076 142.278 L 166.076 154.937 163.544 154.937 C 161.069 154.937,161.013 154.768,161.013 147.342 C 161.013 139.916,160.956 139.747,158.481 139.747 C 156.456 139.747,155.949 140.253,155.949 142.278 C 155.949 144.646,155.617 144.810,150.816 144.810 C 145.184 144.810,143.316 148.939,148.608 149.691 C 150.277 149.928,150.886 150.692,150.886 152.546 C 150.886 155.949,146.494 155.594,146.006 152.152 C 145.696 149.974,145.262 149.873,136.203 149.873 C 127.143 149.873,126.709 149.974,126.400 152.152 C 125.655 157.396,121.519 155.585,121.519 150.014 C 121.519 145.534,121.782 144.914,123.797 144.627 C 129.089 143.876,127.221 139.747,121.589 139.747 C 116.789 139.747,116.456 139.911,116.456 142.278 C 116.456 144.304,115.949 144.810,113.924 144.810 C 111.558 144.810,111.392 145.145,111.392 149.918 L 111.392 155.025 104.051 154.728 C 97.314 154.455,96.682 154.243,96.385 152.152 C 96.182 150.721,95.360 149.873,94.177 149.873 C 92.994 149.873,92.172 150.721,91.969 152.152 C 91.448 155.822,82.025 156.182,82.025 152.531 C 82.025 150.692,82.639 149.927,84.304 149.691 C 86.507 149.378,86.592 148.957,86.867 136.962 C 87.132 125.393,87.285 124.557,89.145 124.557 C 90.404 124.557,91.139 123.872,91.139 122.700 C 91.139 120.215,92.153 119.348,94.642 119.704 C 96.053 119.906,96.683 120.723,96.628 122.278 M136.526 122.278 C 136.790 124.134,136.367 124.557,134.248 124.557 C 132.128 124.557,131.646 124.074,131.646 121.955 C 131.646 118.492,136.030 118.783,136.526 122.278 M165.893 122.278 C 166.157 124.134,165.734 124.557,163.615 124.557 C 161.496 124.557,161.013 124.074,161.013 121.955 C 161.013 118.492,165.397 118.783,165.893 122.278 M47.595 137.215 L 47.595 148.861 59.747 148.861 L 71.899 148.861 71.899 137.215 L 71.899 125.570 59.747 125.570 L 47.595 125.570 47.595 137.215 M66.835 137.215 L 66.835 144.810 59.241 144.810 L 51.646 144.810 51.646 137.215 L 51.646 129.620 59.241 129.620 L 66.835 129.620 66.835 137.215 M92.152 134.684 C 92.152 139.449,92.305 139.747,94.760 139.747 C 97.238 139.747,97.353 139.986,97.069 144.557 C 96.800 148.863,97.005 149.401,99.017 149.691 C 100.841 149.953,101.266 149.522,101.266 147.412 C 101.266 145.312,101.754 144.810,103.797 144.810 C 105.823 144.810,106.329 144.304,106.329 142.278 C 106.329 140.253,105.823 139.747,103.797 139.747 C 101.772 139.747,101.266 139.241,101.266 137.215 C 101.266 135.190,100.759 134.684,98.734 134.684 C 96.709 134.684,96.203 134.177,96.203 132.152 C 96.203 130.295,95.662 129.620,94.177 129.620 C 92.422 129.620,92.152 130.295,92.152 134.684 " stroke="none" fill="#000000" fill-rule="evenodd"></path></g></svg>